PathFileType	4	(X/Y/Z)	s02c0202.trc
DataRate	CameraRate	NumFrames	NumMarkers	Units	OrigDataRate	OrigDataStartFrame	OrigNumFrames
200	200	4	50	mm	200	1500	2000
Frame#	Time	racr			lacr			c7			jug			rlel			rdr			llel			ldr			s2			lic			ric			lasi			rasi			rpsi			lpsi			rgt			lgt			rth1			rth2			rth3			rth4			rlfc			rmfc			rsh1			rsh2			rsh3			rsh4			rlmal			rmmal			rtoe			rmt5			rmt1			lth1			lth2			lth4			lth3			llfc			lmfc			lsh1			lsh2			lsh3			lsh4			llmal			lmmal			lcal			ltoe			lmt5			SBIKE			LBIKE			RBIKE			
		X1	Y1	Z1	X2	Y2	Z2	X3	Y3	Z3	X4	Y4	Z4	X5	Y5	Z5	X6	Y6	Z6	X7	Y7	Z7	X8	Y8	Z8	X9	Y9	Z9	X10	Y10	Z10	X11	Y11	Z11	X12	Y12	Z12	X13	Y13	Z13	X14	Y14	Z14	X15	Y15	Z15	X16	Y16	Z16	X17	Y17	Z17	X18	Y18	Z18	X19	Y19	Z19	X20	Y20	Z20	X21	Y21	Z21	X22	Y22	Z22	X23	Y23	Z23	X24	Y24	Z24	X25	Y25	Z25	X26	Y26	Z26	X27	Y27	Z27	X28	Y28	Z28	X29	Y29	Z29	X30	Y30	Z30	X31	Y31	Z31	X32	Y32	Z32	X33	Y33	Z33	X34	Y34	Z34	X35	Y35	Z35	X36	Y36	Z36	X37	Y37	Z37	X38	Y38	Z38	X39	Y39	Z39	X40	Y40	Z40	X41	Y41	Z41	X42	Y42	Z42	X43	Y43	Z43	X44	Y44	Z44	X45	Y45	Z45	X46	Y46	Z46	X47	Y47	Z47	X48	Y48	Z48	X49	Y49	Z49	X50	Y50	Z50	
1500	7.5000	587.773083	1198.586898	-242.800734	513.025047	1227.514342	-561.339446	541.606464	1258.602256	-404.335641	471.759673	1137.197568	-389.657852	603.595286	1038.117639	-37.994716	703.873461	888.209822	-125.667085	504.344350	961.547921	-655.334415	686.060971	883.574474	-545.312149	20.011553	1130.022769	-300.316176	142.629409	1142.547294	-450.676180	156.446294	1113.126865	-164.257875	189.218889	1109.922810	-429.572729	204.325441	1087.573151	-195.260893	44.741208	1159.803114	-254.700013	44.724947	1171.384750	-338.809038	112.567670	1023.750865	-132.677259	106.394183	1060.010132	-489.166309	185.989231	948.944586	-118.170239	249.065767	886.930704	-113.987468	273.895322	806.945589	-92.887629	277.220709	901.126415	-134.800811	319.805809	675.184045	-128.286586	319.356101	658.990268	-236.344528	287.724040	570.816053	-113.274072	275.399791	484.127826	-132.219606	225.407068	414.134287	-132.223549	292.483613	481.941323	-167.945962	172.996139	310.594850	-143.852009	189.515108	326.870371	-221.246783	316.245481	133.190686	-190.165170	219.985693	185.003173	-131.290952	248.963286	181.897007	-237.238030	239.185118	1025.935604	-501.766601	323.705462	1016.422226	-495.372165	335.332987	1046.268685	-475.929732	395.481805	963.691553	-500.436397	489.263764	924.812784	-481.581393	497.586184	892.677258	-371.185635	457.921726	831.900022	-498.056226	433.395826	749.766112	-485.962475	368.289313	687.123080	-489.798876	454.061548	739.124556	-451.899374	296.972657	593.501320	-476.858876	316.735576	587.111317	-400.709145	220.850349	555.712772	-439.075137	495.351843	471.536343	-447.947017	386.089176	475.381278	-507.838564	-165.251872	854.942806	-321.960698	32.689696	82.194223	-515.255653	32.887937	81.848107	-115.232304	
1501	7.5050	587.938642	1197.067356	-245.369904	510.303838	1228.060837	-563.242294	540.571170	1258.486676	-406.123916	470.045713	1137.457746	-391.554678	604.827881	1039.043123	-39.037205	703.871204	888.329443	-126.019765	503.267876	961.335644	-655.111833	685.629547	883.739545	-545.549620	19.778330	1130.874606	-299.819204	142.363905	1142.609753	-450.272847	156.224409	1113.481451	-163.717431	188.886035	1109.941467	-429.080846	204.082795	1087.727456	-195.000845	44.545737	1160.880726	-253.862905	44.353446	1172.184023	-337.973922	112.664452	1024.409199	-131.812035	105.749986	1060.174004	-488.086774	186.801346	950.318427	-118.077582	250.839826	889.333328	-113.773841	276.971351	809.700114	-92.948494	278.731990	903.909140	-135.256595	324.726521	678.398050	-128.340515	324.038404	662.327729	-236.776906	290.511395	574.153388	-113.700667	275.462589	487.880153	-132.774426	223.380572	419.427308	-132.727627	292.197413	485.286480	-168.809969	167.493145	317.695552	-144.207519	184.382818	333.638819	-221.782326	306.981007	137.107245	-190.290730	211.804719	191.160488	-131.508869	240.779809	187.013820	-237.546017	236.544952	1023.496606	-496.905369	322.864051	1013.401364	-495.685760	334.904609	1042.766495	-476.595760	393.385538	959.056255	-501.477994	485.288360	916.924886	-483.509504	495.309042	885.992519	-372.931290	456.100033	823.835445	-499.087387	433.191114	741.183928	-487.126222	369.451079	677.083086	-490.782046	454.117919	731.321746	-453.277427	299.940318	583.065964	-477.098864	319.576683	577.066208	-400.981101	224.521804	541.849823	-439.270007	502.633441	469.174428	-448.450868	393.278556	468.656432	-508.442805	-165.322140	855.554712	-320.377500	32.700427	81.952052	-515.351199	32.880159	81.811771	-115.276735	
1502	7.5100	588.048698	1196.092627	-247.567330	507.854392	1228.769901	-565.036793	539.538937	1258.392774	-407.756656	468.767703	1137.507778	-393.149107	605.857865	1039.846196	-40.237605	703.787713	888.445076	-126.442454	502.188975	961.287802	-654.808329	685.123858	883.813241	-545.608709	19.598940	1131.615696	-299.251134	142.093058	1142.518641	-449.845517	156.126392	1113.664742	-163.352990	188.540711	1109.781914	-428.587734	203.865529	1087.789177	-194.795588	44.305587	1161.892744	-253.030102	44.013580	1172.724583	-337.056957	112.891036	1024.980278	-131.055445	105.105746	1060.161211	-487.108865	187.844194	951.678589	-118.349845	252.888511	891.828548	-113.930136	280.584527	812.919940	-92.685319	280.622586	906.926676	-135.297952	330.029483	681.787904	-128.622291	328.884162	665.686107	-237.402409	293.648146	577.604734	-114.226317	275.858598	491.798149	-133.549532	221.747592	424.979807	-133.245225	292.248521	488.910806	-169.683694	162.329990	325.256687	-144.493819	179.702354	340.791718	-222.275645	298.003980	141.663520	-190.383327	203.948090	197.687502	-131.812296	232.742987	192.688197	-238.013636	235.649948	1021.386581	-497.205683	321.767358	1009.638029	-496.435729	334.416982	1038.713163	-477.384651	391.167016	953.984761	-502.529720	482.374874	909.225971	-484.886274	492.798545	878.723925	-374.645310	454.221778	814.695799	-500.432895	433.151348	731.712338	-487.975206	370.735520	666.252774	-491.392162	453.981087	722.679773	-453.876792	302.708979	571.613073	-476.846796	322.749966	566.366112	-400.909315	228.931378	527.982848	-439.334940	509.607689	465.669524	-449.064142	400.213662	461.217953	-509.026459	-165.467096	855.218269	-321.286659	32.691792	81.694463	-515.422802	32.854079	81.773196	-115.315391	
1503	7.5150	588.123400	1195.476254	-249.509821	505.672094	1229.433395	-566.588267	538.562539	1258.463774	-409.279838	467.641260	1137.674722	-394.573844	606.595624	1040.486164	-41.674544	703.659526	888.554734	-126.895307	501.197651	961.348578	-654.334465	684.560581	883.763285	-545.543750	19.354249	1132.133706	-298.577834	141.585821	1142.236837	-449.444769	156.117141	1113.725615	-163.011318	188.017172	1109.497695	-428.147206	203.682801	1087.718147	-194.682969	44.108992	1162.491071	-252.196791	43.593738	1173.016667	-336.232765	113.224603	1025.444024	-130.363929	104.286553	1059.889150	-486.080665	189.176750	952.951089	-118.599058	255.181247	894.258294	-114.510745	284.562912	815.860821	-93.016212	282.675672	909.866896	-135.547568	335.665232	685.262005	-129.081113	333.828867	669.019568	-238.152986	297.222041	581.201549	-114.860786	276.578212	496.030542	-134.373535	220.505506	430.893084	-133.763023	292.554460	492.766092	-170.625091	157.557156	333.175929	-144.772460	175.311405	348.499896	-222.718278	289.402036	146.810771	-190.415361	196.432251	204.841595	-131.984191	225.379682	199.060582	-238.122252	234.724887	1018.894408	-497.642535	320.571802	1005.413789	-497.126751	333.605293	1034.314824	-479.239035	388.909084	948.371042	-503.524714	479.188040	901.114313	-486.055555	489.726581	871.051191	-376.071811	452.204244	804.789524	-502.059067	433.011077	721.449800	-488.360533	372.352395	654.722286	-491.716386	453.694865	713.529376	-453.976260	306.464539	560.752385	-476.825265	326.470265	555.360350	-400.603213	233.502949	514.197839	-439.116299	516.289836	461.141740	-449.599485	406.980665	453.240294	-509.405948	-165.522636	855.116625	-321.640641	32.645829	81.568218	-515.341131	32.841330	81.831762	-115.397715	
